<mxfile host="Electron" modified="2023-12-06T05:06:05.753Z" agent="Mozilla/5.0 (Windows NT 10.0; Win64; x64) AppleWebKit/537.36 (KHTML, like Gecko) draw.io/22.1.2 Chrome/114.0.5735.289 Electron/25.9.4 Safari/537.36" etag="T8S8YDcjN0Mnso8Ux_SD" version="22.1.2" type="device">
  <diagram name="Page-1" id="j-ITzhk5yj7DQqKf2uYV">
    <mxGraphModel dx="2495" dy="965" grid="1" gridSize="10" guides="1" tooltips="1" connect="1" arrows="1" fold="1" page="1" pageScale="1" pageWidth="827" pageHeight="1169" math="0" shadow="0">
      <root>
        <mxCell id="0" />
        <mxCell id="1" parent="0" />
        <mxCell id="rZBTtGGST0gbjymnWesP-11" value="Log In" style="ellipse;whiteSpace=wrap;html=1;" parent="1" vertex="1">
          <mxGeometry x="290" y="200" width="140" height="70" as="geometry" />
        </mxCell>
        <mxCell id="rZBTtGGST0gbjymnWesP-13" value="Actor" style="shape=umlActor;verticalLabelPosition=bottom;verticalAlign=top;html=1;fillColor=#f8cecc;strokeColor=#b85450;" parent="1" vertex="1">
          <mxGeometry x="-180" y="630" width="30" height="60" as="geometry" />
        </mxCell>
        <mxCell id="rZBTtGGST0gbjymnWesP-14" value="Landlord" style="text;align=center;fontStyle=1;verticalAlign=middle;spacingLeft=3;spacingRight=3;strokeColor=#b85450;rotatable=0;points=[[0,0.5],[1,0.5]];portConstraint=eastwest;html=1;fillColor=#f8cecc;" parent="1" vertex="1">
          <mxGeometry x="-205" y="690" width="80" height="26" as="geometry" />
        </mxCell>
        <mxCell id="rZBTtGGST0gbjymnWesP-15" value="Tenant" style="text;align=center;fontStyle=1;verticalAlign=middle;spacingLeft=3;spacingRight=3;strokeColor=#9673a6;rotatable=0;points=[[0,0.5],[1,0.5]];portConstraint=eastwest;html=1;fillColor=#0066CC;" parent="1" vertex="1">
          <mxGeometry x="-85" y="350" width="80" height="26" as="geometry" />
        </mxCell>
        <mxCell id="rZBTtGGST0gbjymnWesP-16" value="Actor" style="shape=umlActor;verticalLabelPosition=bottom;verticalAlign=top;html=1;" parent="1" vertex="1">
          <mxGeometry x="-60" y="270" width="30" height="60" as="geometry" />
        </mxCell>
        <mxCell id="rZBTtGGST0gbjymnWesP-19" value="" style="endArrow=classic;html=1;rounded=0;exitX=1;exitY=0.3333333333333333;exitDx=0;exitDy=0;exitPerimeter=0;entryX=0;entryY=0.5;entryDx=0;entryDy=0;fillColor=#f8cecc;strokeColor=#b85450;" parent="1" source="rZBTtGGST0gbjymnWesP-13" target="rZBTtGGST0gbjymnWesP-11" edge="1">
          <mxGeometry width="50" height="50" relative="1" as="geometry">
            <mxPoint x="410" y="430" as="sourcePoint" />
            <mxPoint x="460" y="380" as="targetPoint" />
          </mxGeometry>
        </mxCell>
        <mxCell id="rZBTtGGST0gbjymnWesP-20" value="Make Payment" style="ellipse;whiteSpace=wrap;html=1;" parent="1" vertex="1">
          <mxGeometry x="250" y="290" width="140" height="70" as="geometry" />
        </mxCell>
        <mxCell id="rZBTtGGST0gbjymnWesP-22" value="" style="endArrow=classic;html=1;rounded=0;exitX=1;exitY=0.3333333333333333;exitDx=0;exitDy=0;exitPerimeter=0;entryX=0;entryY=0.5;entryDx=0;entryDy=0;" parent="1" source="rZBTtGGST0gbjymnWesP-16" target="rZBTtGGST0gbjymnWesP-20" edge="1">
          <mxGeometry width="50" height="50" relative="1" as="geometry">
            <mxPoint x="130" y="460" as="sourcePoint" />
            <mxPoint x="300" y="245" as="targetPoint" />
          </mxGeometry>
        </mxCell>
        <mxCell id="rZBTtGGST0gbjymnWesP-23" value="" style="endArrow=classic;html=1;rounded=0;exitX=1;exitY=0.3333333333333333;exitDx=0;exitDy=0;exitPerimeter=0;entryX=0;entryY=0.5;entryDx=0;entryDy=0;" parent="1" source="rZBTtGGST0gbjymnWesP-16" target="rZBTtGGST0gbjymnWesP-11" edge="1">
          <mxGeometry width="50" height="50" relative="1" as="geometry">
            <mxPoint x="130" y="460" as="sourcePoint" />
            <mxPoint x="300" y="245" as="targetPoint" />
          </mxGeometry>
        </mxCell>
        <mxCell id="rZBTtGGST0gbjymnWesP-24" value="Actor" style="shape=umlActor;verticalLabelPosition=bottom;verticalAlign=top;html=1;outlineConnect=0;fillColor=#d5e8d4;strokeColor=#82b366;" parent="1" vertex="1">
          <mxGeometry x="760" y="570" width="30" height="60" as="geometry" />
        </mxCell>
        <mxCell id="rZBTtGGST0gbjymnWesP-25" value="Admin" style="text;align=center;fontStyle=1;verticalAlign=middle;spacingLeft=3;spacingRight=3;strokeColor=#82b366;rotatable=0;points=[[0,0.5],[1,0.5]];portConstraint=eastwest;html=1;fillColor=#d5e8d4;" parent="1" vertex="1">
          <mxGeometry x="735" y="638" width="80" height="26" as="geometry" />
        </mxCell>
        <mxCell id="rZBTtGGST0gbjymnWesP-28" value="request and track maintenance" style="ellipse;whiteSpace=wrap;html=1;" parent="1" vertex="1">
          <mxGeometry x="274" y="514.5" width="140" height="70" as="geometry" />
        </mxCell>
        <mxCell id="rZBTtGGST0gbjymnWesP-29" value="issue and terminate contracts" style="ellipse;whiteSpace=wrap;html=1;" parent="1" vertex="1">
          <mxGeometry x="280" y="770" width="140" height="70" as="geometry" />
        </mxCell>
        <mxCell id="rZBTtGGST0gbjymnWesP-30" value="Payment History" style="ellipse;whiteSpace=wrap;html=1;" parent="1" vertex="1">
          <mxGeometry x="280" y="405" width="140" height="70" as="geometry" />
        </mxCell>
        <mxCell id="rZBTtGGST0gbjymnWesP-31" value="" style="endArrow=classic;html=1;rounded=0;exitX=0.833;exitY=1;exitDx=0;exitDy=0;exitPerimeter=0;entryX=0;entryY=0.5;entryDx=0;entryDy=0;" parent="1" source="rZBTtGGST0gbjymnWesP-16" target="rZBTtGGST0gbjymnWesP-30" edge="1">
          <mxGeometry width="50" height="50" relative="1" as="geometry">
            <mxPoint x="120" y="320" as="sourcePoint" />
            <mxPoint x="295" y="365" as="targetPoint" />
          </mxGeometry>
        </mxCell>
        <mxCell id="rZBTtGGST0gbjymnWesP-33" value="" style="endArrow=classic;html=1;rounded=0;exitX=0.9;exitY=0.833;exitDx=0;exitDy=0;exitPerimeter=0;entryX=0;entryY=0.5;entryDx=0;entryDy=0;" parent="1" source="rZBTtGGST0gbjymnWesP-16" target="rZBTtGGST0gbjymnWesP-28" edge="1">
          <mxGeometry width="50" height="50" relative="1" as="geometry">
            <mxPoint x="120" y="330" as="sourcePoint" />
            <mxPoint x="300" y="425" as="targetPoint" />
          </mxGeometry>
        </mxCell>
        <mxCell id="rZBTtGGST0gbjymnWesP-34" value="" style="endArrow=classic;html=1;rounded=0;entryX=0;entryY=0.5;entryDx=0;entryDy=0;exitX=0.5;exitY=0.5;exitDx=0;exitDy=0;exitPerimeter=0;fillColor=#f8cecc;strokeColor=#b85450;" parent="1" source="rZBTtGGST0gbjymnWesP-13" target="rZBTtGGST0gbjymnWesP-29" edge="1">
          <mxGeometry width="50" height="50" relative="1" as="geometry">
            <mxPoint x="170" y="560" as="sourcePoint" />
            <mxPoint x="348" y="755" as="targetPoint" />
          </mxGeometry>
        </mxCell>
        <mxCell id="rZBTtGGST0gbjymnWesP-35" value="View Contract" style="ellipse;whiteSpace=wrap;html=1;" parent="1" vertex="1">
          <mxGeometry x="274" y="686" width="140" height="70" as="geometry" />
        </mxCell>
        <mxCell id="rZBTtGGST0gbjymnWesP-37" value="" style="endArrow=classic;html=1;rounded=0;entryX=0;entryY=0.5;entryDx=0;entryDy=0;exitX=0.5;exitY=0.5;exitDx=0;exitDy=0;exitPerimeter=0;" parent="1" source="rZBTtGGST0gbjymnWesP-16" target="rZBTtGGST0gbjymnWesP-35" edge="1">
          <mxGeometry width="50" height="50" relative="1" as="geometry">
            <mxPoint x="115" y="470" as="sourcePoint" />
            <mxPoint x="300" y="705" as="targetPoint" />
          </mxGeometry>
        </mxCell>
        <mxCell id="rZBTtGGST0gbjymnWesP-38" value="" style="endArrow=classic;html=1;rounded=0;exitX=0.533;exitY=0.383;exitDx=0;exitDy=0;exitPerimeter=0;entryX=0;entryY=0.5;entryDx=0;entryDy=0;fillColor=#f8cecc;strokeColor=#b85450;" parent="1" source="rZBTtGGST0gbjymnWesP-13" target="rZBTtGGST0gbjymnWesP-30" edge="1">
          <mxGeometry width="50" height="50" relative="1" as="geometry">
            <mxPoint x="130" y="460" as="sourcePoint" />
            <mxPoint x="300" y="245" as="targetPoint" />
          </mxGeometry>
        </mxCell>
        <mxCell id="rZBTtGGST0gbjymnWesP-39" value="process maintenance requests" style="ellipse;whiteSpace=wrap;html=1;" parent="1" vertex="1">
          <mxGeometry x="360" y="616" width="140" height="70" as="geometry" />
        </mxCell>
        <mxCell id="rZBTtGGST0gbjymnWesP-40" value="" style="endArrow=classic;html=1;rounded=0;entryX=0;entryY=0.5;entryDx=0;entryDy=0;exitX=0.467;exitY=0.667;exitDx=0;exitDy=0;exitPerimeter=0;fillColor=#f8cecc;strokeColor=#b85450;" parent="1" source="rZBTtGGST0gbjymnWesP-13" target="rZBTtGGST0gbjymnWesP-39" edge="1">
          <mxGeometry width="50" height="50" relative="1" as="geometry">
            <mxPoint x="115" y="470" as="sourcePoint" />
            <mxPoint x="300" y="745" as="targetPoint" />
          </mxGeometry>
        </mxCell>
        <mxCell id="rZBTtGGST0gbjymnWesP-43" value="" style="endArrow=classic;html=1;rounded=0;entryX=1;entryY=0.5;entryDx=0;entryDy=0;fillColor=#d5e8d4;strokeColor=#82b366;" parent="1" source="rZBTtGGST0gbjymnWesP-24" target="rZBTtGGST0gbjymnWesP-11" edge="1">
          <mxGeometry width="50" height="50" relative="1" as="geometry">
            <mxPoint x="290" y="484" as="sourcePoint" />
            <mxPoint x="669" y="549" as="targetPoint" />
          </mxGeometry>
        </mxCell>
        <mxCell id="V7mxBHc63znZEzIa9hjI-1" value="Actor" style="shape=umlActor;verticalLabelPosition=bottom;verticalAlign=top;html=1;outlineConnect=0;fillColor=#fff2cc;strokeColor=#d6b656;" parent="1" vertex="1">
          <mxGeometry x="-100" y="1000" width="30" height="60" as="geometry" />
        </mxCell>
        <mxCell id="V7mxBHc63znZEzIa9hjI-2" value="Landlord" style="text;align=center;fontStyle=1;verticalAlign=middle;spacingLeft=3;spacingRight=3;strokeColor=#b85450;rotatable=0;points=[[0,0.5],[1,0.5]];portConstraint=eastwest;html=1;fillColor=#f8cecc;" parent="1" vertex="1">
          <mxGeometry x="-205" y="690" width="80" height="26" as="geometry" />
        </mxCell>
        <mxCell id="V7mxBHc63znZEzIa9hjI-3" value="employ" style="text;align=center;fontStyle=1;verticalAlign=middle;spacingLeft=3;spacingRight=3;strokeColor=#d6b656;rotatable=0;points=[[0,0.5],[1,0.5]];portConstraint=eastwest;html=1;fillColor=#fff2cc;" parent="1" vertex="1">
          <mxGeometry x="-125" y="1060" width="80" height="26" as="geometry" />
        </mxCell>
        <mxCell id="V7mxBHc63znZEzIa9hjI-4" value="" style="endArrow=classic;html=1;rounded=0;entryX=0;entryY=0.5;entryDx=0;entryDy=0;fillColor=#fff2cc;strokeColor=#d6b656;exitX=0.25;exitY=0.1;exitDx=0;exitDy=0;exitPerimeter=0;" parent="1" source="V7mxBHc63znZEzIa9hjI-1" target="rZBTtGGST0gbjymnWesP-11" edge="1">
          <mxGeometry width="50" height="50" relative="1" as="geometry">
            <mxPoint x="-30" y="995" as="sourcePoint" />
            <mxPoint x="360" y="540" as="targetPoint" />
          </mxGeometry>
        </mxCell>
        <mxCell id="V7mxBHc63znZEzIa9hjI-5" value="view timesheets" style="ellipse;whiteSpace=wrap;html=1;" parent="1" vertex="1">
          <mxGeometry x="280" y="850" width="140" height="70" as="geometry" />
        </mxCell>
        <mxCell id="V7mxBHc63znZEzIa9hjI-6" value="app;y and track leave application" style="ellipse;whiteSpace=wrap;html=1;" parent="1" vertex="1">
          <mxGeometry x="274" y="940" width="140" height="70" as="geometry" />
        </mxCell>
        <mxCell id="V7mxBHc63znZEzIa9hjI-7" value="" style="endArrow=classic;html=1;rounded=0;entryX=0;entryY=0.5;entryDx=0;entryDy=0;fillColor=#fff2cc;strokeColor=#d6b656;exitX=0.5;exitY=0.5;exitDx=0;exitDy=0;exitPerimeter=0;" parent="1" source="V7mxBHc63znZEzIa9hjI-1" target="rZBTtGGST0gbjymnWesP-28" edge="1">
          <mxGeometry width="50" height="50" relative="1" as="geometry">
            <mxPoint x="-82" y="1016" as="sourcePoint" />
            <mxPoint x="300" y="245" as="targetPoint" />
          </mxGeometry>
        </mxCell>
        <mxCell id="V7mxBHc63znZEzIa9hjI-10" value="" style="endArrow=classic;html=1;rounded=0;entryX=0;entryY=0.5;entryDx=0;entryDy=0;fillColor=#fff2cc;strokeColor=#d6b656;exitX=0.75;exitY=0.1;exitDx=0;exitDy=0;exitPerimeter=0;" parent="1" source="V7mxBHc63znZEzIa9hjI-1" target="V7mxBHc63znZEzIa9hjI-5" edge="1">
          <mxGeometry width="50" height="50" relative="1" as="geometry">
            <mxPoint x="-75" y="1040" as="sourcePoint" />
            <mxPoint x="284" y="559" as="targetPoint" />
          </mxGeometry>
        </mxCell>
        <mxCell id="V7mxBHc63znZEzIa9hjI-11" value="" style="endArrow=classic;html=1;rounded=0;entryX=0;entryY=0.5;entryDx=0;entryDy=0;exitX=0.5;exitY=0.5;exitDx=0;exitDy=0;exitPerimeter=0;fillColor=#f8cecc;strokeColor=#b85450;" parent="1" source="rZBTtGGST0gbjymnWesP-13" target="V7mxBHc63znZEzIa9hjI-5" edge="1">
          <mxGeometry width="50" height="50" relative="1" as="geometry">
            <mxPoint x="-105" y="710" as="sourcePoint" />
            <mxPoint x="290" y="815" as="targetPoint" />
          </mxGeometry>
        </mxCell>
        <mxCell id="V7mxBHc63znZEzIa9hjI-12" value="" style="endArrow=classic;html=1;rounded=0;entryX=0;entryY=0.5;entryDx=0;entryDy=0;fillColor=#fff2cc;strokeColor=#d6b656;exitX=0.5;exitY=0.5;exitDx=0;exitDy=0;exitPerimeter=0;" parent="1" source="V7mxBHc63znZEzIa9hjI-1" target="V7mxBHc63znZEzIa9hjI-6" edge="1">
          <mxGeometry width="50" height="50" relative="1" as="geometry">
            <mxPoint x="-67" y="1016" as="sourcePoint" />
            <mxPoint x="290" y="895" as="targetPoint" />
          </mxGeometry>
        </mxCell>
        <mxCell id="V7mxBHc63znZEzIa9hjI-13" value="" style="endArrow=classic;html=1;rounded=0;entryX=0;entryY=0.5;entryDx=0;entryDy=0;exitX=0.5;exitY=0.5;exitDx=0;exitDy=0;exitPerimeter=0;fillColor=#f8cecc;strokeColor=#b85450;" parent="1" source="rZBTtGGST0gbjymnWesP-13" target="V7mxBHc63znZEzIa9hjI-6" edge="1">
          <mxGeometry width="50" height="50" relative="1" as="geometry">
            <mxPoint x="-105" y="710" as="sourcePoint" />
            <mxPoint x="290" y="895" as="targetPoint" />
          </mxGeometry>
        </mxCell>
        <mxCell id="C_Pre64lY851FEjqHjQg-3" value="" style="endArrow=classic;html=1;rounded=0;fillColor=#d5e8d4;strokeColor=#82b366;entryX=1;entryY=0.5;entryDx=0;entryDy=0;exitX=0;exitY=0.3333333333333333;exitDx=0;exitDy=0;exitPerimeter=0;" parent="1" source="rZBTtGGST0gbjymnWesP-24" target="rZBTtGGST0gbjymnWesP-39" edge="1">
          <mxGeometry width="50" height="50" relative="1" as="geometry">
            <mxPoint x="720" y="440" as="sourcePoint" />
            <mxPoint x="710" y="610" as="targetPoint" />
          </mxGeometry>
        </mxCell>
        <mxCell id="C_Pre64lY851FEjqHjQg-4" value="" style="endArrow=classic;html=1;rounded=0;fillColor=#d5e8d4;strokeColor=#82b366;entryX=1;entryY=0.5;entryDx=0;entryDy=0;exitX=0;exitY=0.3333333333333333;exitDx=0;exitDy=0;exitPerimeter=0;" parent="1" source="rZBTtGGST0gbjymnWesP-24" target="rZBTtGGST0gbjymnWesP-35" edge="1">
          <mxGeometry width="50" height="50" relative="1" as="geometry">
            <mxPoint x="720" y="440" as="sourcePoint" />
            <mxPoint x="510" y="661" as="targetPoint" />
          </mxGeometry>
        </mxCell>
        <mxCell id="C_Pre64lY851FEjqHjQg-5" value="" style="endArrow=classic;html=1;rounded=0;fillColor=#d5e8d4;strokeColor=#82b366;entryX=1;entryY=0.5;entryDx=0;entryDy=0;exitX=0;exitY=0.3333333333333333;exitDx=0;exitDy=0;exitPerimeter=0;" parent="1" source="rZBTtGGST0gbjymnWesP-24" target="V7mxBHc63znZEzIa9hjI-5" edge="1">
          <mxGeometry width="50" height="50" relative="1" as="geometry">
            <mxPoint x="770" y="615" as="sourcePoint" />
            <mxPoint x="424" y="731" as="targetPoint" />
          </mxGeometry>
        </mxCell>
      </root>
    </mxGraphModel>
  </diagram>
</mxfile>
